<?xml version="1.0" standalone="no"?>
<!DOCTYPE svg PUBLIC "-//W3C//DTD SVG 20010904//EN"
 "http://www.w3.org/TR/2001/REC-SVG-20010904/DTD/svg10.dtd">
<svg version="1.0" xmlns="http://www.w3.org/2000/svg"
 width="512.000000pt" height="512.000000pt" viewBox="0 0 512.000000 512.000000"
 preserveAspectRatio="xMidYMid meet">
<metadata>
Created by potrace 1.11, written by Peter Selinger 2001-2013
</metadata>
<g transform="translate(0.000000,512.000000) scale(0.100000,-0.100000)"
fill="#000000" stroke="none">
<path d="M1146 4227 c-25 -14 -48 -39 -63 -66 l-23 -44 0 -1546 c0 -994 4
-1559 10 -1582 40 -143 250 -159 315 -23 16 34 17 133 17 1593 0 1152 -3 1564
-12 1586 -36 93 -154 133 -244 82z"/>
<path d="M3815 4234 c-43 -22 -61 -41 -80 -81 -16 -32 -17 -159 -17 -1593 0
-1460 1 -1560 17 -1594 56 -117 229 -127 297 -18 l23 37 2 1566 3 1566 -23 44
c-42 78 -146 113 -222 73z"/>
<path d="M634 3740 c-48 -21 -72 -47 -88 -95 -16 -45 -20 -2097 -5 -2158 37
-144 250 -165 314 -30 18 36 19 89 19 1085 1 575 -3 1064 -7 1086 -8 41 -46
91 -86 112 -38 20 -104 20 -147 0z"/>
<path d="M1700 3744 c-43 -18 -67 -40 -88 -79 -15 -27 -16 -137 -18 -1080 -1
-648 2 -1065 8 -1090 20 -79 73 -125 153 -130 60 -4 118 25 152 76 l28 43 1
1055 c0 581 -3 1071 -7 1090 -21 97 -135 154 -229 115z"/>
<path d="M3285 3741 c-22 -10 -48 -27 -57 -38 -45 -50 -44 -40 -43 -1158 1
-954 2 -1063 17 -1090 32 -60 95 -95 163 -90 57 3 101 29 133 77 l27 41 1
1061 c0 655 -3 1072 -9 1091 -33 101 -138 149 -232 106z"/>
<path d="M4360 3748 c-45 -17 -88 -57 -101 -95 -10 -30 -13 -269 -14 -1078 0
-572 3 -1058 8 -1079 16 -76 68 -123 148 -131 78 -8 157 44 177 118 12 43 13
2101 1 2148 -18 72 -77 119 -153 124 -23 1 -52 -2 -66 -7z"/>
<path d="M2775 3483 c-11 -3 -35 -16 -54 -30 -67 -51 -64 -15 -66 -878 -1
-814 0 -841 42 -887 10 -11 35 -29 55 -39 91 -47 198 -3 234 96 15 42 13 1610
-3 1645 -34 76 -120 114 -208 93z"/>
<path d="M125 3258 c-45 -16 -90 -53 -108 -90 -14 -29 -16 -99 -17 -600 0
-492 2 -573 15 -605 30 -71 79 -105 152 -105 58 0 106 24 140 69 l28 36 0 597
0 597 -29 37 c-42 55 -122 83 -181 64z"/>
<path d="M4895 3254 c-51 -19 -89 -56 -104 -102 -9 -27 -11 -186 -9 -613 l3
-576 28 -36 c36 -48 77 -68 136 -69 80 0 139 43 161 117 8 29 10 202 8 611
l-3 571 -29 37 c-45 59 -123 84 -191 60z"/>
<path d="M2213 3209 c-33 -16 -48 -33 -67 -72 l-24 -52 2 -535 c1 -362 6 -543
13 -560 58 -132 252 -132 310 0 13 30 16 111 16 570 1 498 -1 538 -18 573 -41
86 -144 120 -232 76z"/>
</g>
</svg>
